<svg>
<symbol id="card1" width="60" height="58" viewBox="0 0 60 58" xmlns="http://www.w3.org/2000/svg">
<path d="M10.0033 43.9973C9.7381 43.9973 9.48376 44.1027 9.29623 44.2902C9.10871 44.4777 9.00336 44.7321 9.00336 44.9973V50.9969C9.00336 51.2621 9.10871 51.5164 9.29623 51.704C9.48376 51.8915 9.7381 51.9968 10.0033 51.9968C10.2685 51.9968 10.5228 51.8915 10.7104 51.704C10.8979 51.5164 11.0032 51.2621 11.0032 50.9969V44.9973C11.0032 44.7321 10.8979 44.4777 10.7104 44.2902C10.5228 44.1027 10.2685 43.9973 10.0033 43.9973Z" fill="#F37321"/>
<path d="M14.0031 43.9973C13.7379 43.9973 13.4835 44.1027 13.296 44.2902C13.1085 44.4777 13.0031 44.7321 13.0031 44.9973V50.9969C13.0031 51.2621 13.1085 51.5164 13.296 51.704C13.4835 51.8915 13.7379 51.9968 14.0031 51.9968C14.2683 51.9968 14.5226 51.8915 14.7101 51.704C14.8977 51.5164 15.003 51.2621 15.003 50.9969V44.9973C15.003 44.7321 14.8977 44.4777 14.7101 44.2902C14.5226 44.1027 14.2683 43.9973 14.0031 43.9973Z" fill="#F37321"/>
<path d="M18.0028 33.998C17.7376 33.998 17.4833 34.1034 17.2958 34.2909C17.1082 34.4784 17.0029 34.7328 17.0029 34.998V40.9976C17.0029 41.2628 17.1082 41.5171 17.2958 41.7047C17.4833 41.8922 17.7376 41.9975 18.0028 41.9975C18.268 41.9975 18.5224 41.8922 18.7099 41.7047C18.8974 41.5171 19.0028 41.2628 19.0028 40.9976V34.998C19.0028 34.7328 18.8974 34.4784 18.7099 34.2909C18.5224 34.1034 18.268 33.998 18.0028 33.998Z" fill="#F37321"/>
<path d="M18.0028 43.9973C17.7376 43.9973 17.4833 44.1027 17.2958 44.2902C17.1082 44.4777 17.0029 44.7321 17.0029 44.9973V50.9969C17.0029 51.2621 17.1082 51.5164 17.2958 51.704C17.4833 51.8915 17.7376 51.9968 18.0028 51.9968C18.268 51.9968 18.5224 51.8915 18.7099 51.704C18.8974 51.5164 19.0028 51.2621 19.0028 50.9969V44.9973C19.0028 44.7321 18.8974 44.4777 18.7099 44.2902C18.5224 44.1027 18.268 43.9973 18.0028 43.9973Z" fill="#F37321"/>
<path d="M22.0026 33.998C21.7374 33.998 21.483 34.1034 21.2955 34.2909C21.108 34.4784 21.0026 34.7328 21.0026 34.998V40.9976C21.0026 41.2628 21.108 41.5171 21.2955 41.7047C21.483 41.8922 21.7374 41.9975 22.0026 41.9975C22.2678 41.9975 22.5221 41.8922 22.7097 41.7047C22.8972 41.5171 23.0025 41.2628 23.0025 40.9976V34.998C23.0025 34.7328 22.8972 34.4784 22.7097 34.2909C22.5221 34.1034 22.2678 33.998 22.0026 33.998Z" fill="#F37321"/>
<path d="M22.0026 43.9973C21.7374 43.9973 21.483 44.1027 21.2955 44.2902C21.108 44.4777 21.0026 44.7321 21.0026 44.9973V50.9969C21.0026 51.2621 21.108 51.5164 21.2955 51.704C21.483 51.8915 21.7374 51.9968 22.0026 51.9968C22.2678 51.9968 22.5221 51.8915 22.7097 51.704C22.8972 51.5164 23.0025 51.2621 23.0025 50.9969V44.9973C23.0025 44.7321 22.8972 44.4777 22.7097 44.2902C22.5221 44.1027 22.2678 43.9973 22.0026 43.9973Z" fill="#F37321"/>
<path d="M38.0016 33.998C37.7364 33.998 37.4821 34.1034 37.2946 34.2909C37.107 34.4784 37.0017 34.7328 37.0017 34.998V40.9976C37.0017 41.2628 37.107 41.5171 37.2946 41.7047C37.4821 41.8922 37.7364 41.9975 38.0016 41.9975C38.2668 41.9975 38.5212 41.8922 38.7087 41.7047C38.8962 41.5171 39.0016 41.2628 39.0016 40.9976V34.998C39.0016 34.7328 38.8962 34.4784 38.7087 34.2909C38.5212 34.1034 38.2668 33.998 38.0016 33.998Z" fill="#F37321"/>
<path d="M38.0016 43.9973C37.7364 43.9973 37.4821 44.1027 37.2946 44.2902C37.107 44.4777 37.0017 44.7321 37.0017 44.9973V50.9969C37.0017 51.2621 37.107 51.5164 37.2946 51.704C37.4821 51.8915 37.7364 51.9968 38.0016 51.9968C38.2668 51.9968 38.5212 51.8915 38.7087 51.704C38.8962 51.5164 39.0016 51.2621 39.0016 50.9969V44.9973C39.0016 44.7321 38.8962 44.4777 38.7087 44.2902C38.5212 44.1027 38.2668 43.9973 38.0016 43.9973Z" fill="#F37321"/>
<path d="M42.0014 33.998C41.7362 33.998 41.4818 34.1034 41.2943 34.2909C41.1068 34.4784 41.0015 34.7328 41.0015 34.998V40.9976C41.0015 41.2628 41.1068 41.5171 41.2943 41.7047C41.4818 41.8922 41.7362 41.9975 42.0014 41.9975C42.2666 41.9975 42.5209 41.8922 42.7085 41.7047C42.896 41.5171 43.0013 41.2628 43.0013 40.9976V34.998C43.0013 34.7328 42.896 34.4784 42.7085 34.2909C42.5209 34.1034 42.2666 33.998 42.0014 33.998Z" fill="#F37321"/>
<path d="M42.0014 43.9973C41.7362 43.9973 41.4818 44.1027 41.2943 44.2902C41.1068 44.4777 41.0015 44.7321 41.0015 44.9973V50.9969C41.0015 51.2621 41.1068 51.5164 41.2943 51.704C41.4818 51.8915 41.7362 51.9968 42.0014 51.9968C42.2666 51.9968 42.5209 51.8915 42.7085 51.704C42.896 51.5164 43.0013 51.2621 43.0013 50.9969V44.9973C43.0013 44.7321 42.896 44.4777 42.7085 44.2902C42.5209 44.1027 42.2666 43.9973 42.0014 43.9973Z" fill="#F37321"/>
<path d="M46.0012 43.9973C45.736 43.9973 45.4816 44.1027 45.2941 44.2902C45.1066 44.4777 45.0012 44.7321 45.0012 44.9973V50.9969C45.0012 51.2621 45.1066 51.5164 45.2941 51.704C45.4816 51.8915 45.736 51.9968 46.0012 51.9968C46.2664 51.9968 46.5207 51.8915 46.7082 51.704C46.8957 51.5164 47.0011 51.2621 47.0011 50.9969V44.9973C47.0011 44.7321 46.8957 44.4777 46.7082 44.2902C46.5207 44.1027 46.2664 43.9973 46.0012 43.9973Z" fill="#F37321"/>
<path d="M50.0009 43.9973C49.7357 43.9973 49.4814 44.1027 49.2938 44.2902C49.1063 44.4777 49.001 44.7321 49.001 44.9973V50.9969C49.001 51.2621 49.1063 51.5164 49.2938 51.704C49.4814 51.8915 49.7357 51.9968 50.0009 51.9968C50.2661 51.9968 50.5205 51.8915 50.708 51.704C50.8955 51.5164 51.0009 51.2621 51.0009 50.9969V44.9973C51.0009 44.7321 50.8955 44.4777 50.708 44.2902C50.5205 44.1027 50.2661 43.9973 50.0009 43.9973Z" fill="#F37321"/>
<path d="M30.0021 33.998C29.7369 33.998 29.4826 34.1034 29.295 34.2909C29.1075 34.4784 29.0022 34.7328 29.0022 34.998V40.9976C29.0022 41.2628 29.1075 41.5171 29.295 41.7047C29.4826 41.8922 29.7369 41.9975 30.0021 41.9975C30.2673 41.9975 30.5217 41.8922 30.7092 41.7047C30.8967 41.5171 31.0021 41.2628 31.0021 40.9976V34.998C31.0021 34.7328 30.8967 34.4784 30.7092 34.2909C30.5217 34.1034 30.2673 33.998 30.0021 33.998Z" fill="#F37321"/>
<path d="M30.0021 43.9973C29.7369 43.9973 29.4826 44.1027 29.295 44.2902C29.1075 44.4777 29.0022 44.7321 29.0022 44.9973V50.9969C29.0022 51.2621 29.1075 51.5164 29.295 51.704C29.4826 51.8915 29.7369 51.9968 30.0021 51.9968C30.2673 51.9968 30.5217 51.8915 30.7092 51.704C30.8967 51.5164 31.0021 51.2621 31.0021 50.9969V44.9973C31.0021 44.7321 30.8967 44.4777 30.7092 44.2902C30.5217 44.1027 30.2673 43.9973 30.0021 43.9973Z" fill="#F37321"/>
<path d="M26.0023 33.998C25.7372 33.998 25.4828 34.1034 25.2953 34.2909C25.1078 34.4784 25.0024 34.7328 25.0024 34.998V40.9976C25.0024 41.2628 25.1078 41.5171 25.2953 41.7047C25.4828 41.8922 25.7372 41.9975 26.0023 41.9975C26.2676 41.9975 26.5219 41.8922 26.7094 41.7047C26.8969 41.5171 27.0023 41.2628 27.0023 40.9976V34.998C27.0023 34.7328 26.8969 34.4784 26.7094 34.2909C26.5219 34.1034 26.2676 33.998 26.0023 33.998Z" fill="#F37321"/>
<path d="M26.0023 43.9973C25.7372 43.9973 25.4828 44.1027 25.2953 44.2902C25.1078 44.4777 25.0024 44.7321 25.0024 44.9973V50.9969C25.0024 51.2621 25.1078 51.5164 25.2953 51.704C25.4828 51.8915 25.7372 51.9968 26.0023 51.9968C26.2676 51.9968 26.5219 51.8915 26.7094 51.704C26.8969 51.5164 27.0023 51.2621 27.0023 50.9969V44.9973C27.0023 44.7321 26.8969 44.4777 26.7094 44.2902C26.5219 44.1027 26.2676 43.9973 26.0023 43.9973Z" fill="#F37321"/>
<path d="M34.0019 33.998C33.7367 33.998 33.4823 34.1034 33.2948 34.2909C33.1073 34.4784 33.0019 34.7328 33.0019 34.998V40.9976C33.0019 41.2628 33.1073 41.5171 33.2948 41.7047C33.4823 41.8922 33.7367 41.9975 34.0019 41.9975C34.2671 41.9975 34.5214 41.8922 34.7089 41.7047C34.8965 41.5171 35.0018 41.2628 35.0018 40.9976V34.998C35.0018 34.7328 34.8965 34.4784 34.7089 34.2909C34.5214 34.1034 34.2671 33.998 34.0019 33.998Z" fill="#F37321"/>
<path d="M34.0019 43.9973C33.7367 43.9973 33.4823 44.1027 33.2948 44.2902C33.1073 44.4777 33.0019 44.7321 33.0019 44.9973V50.9969C33.0019 51.2621 33.1073 51.5164 33.2948 51.704C33.4823 51.8915 33.7367 51.9968 34.0019 51.9968C34.2671 51.9968 34.5214 51.8915 34.7089 51.704C34.8965 51.5164 35.0018 51.2621 35.0018 50.9969V44.9973C35.0018 44.7321 34.8965 44.4777 34.7089 44.2902C34.5214 44.1027 34.2671 43.9973 34.0019 43.9973Z" fill="#F37321"/>
<path d="M57.6479 42.8784L59.1342 30.9882C59.3738 30.9558 59.5935 30.8376 59.7527 30.6556C59.9119 30.4736 59.9998 30.2401 60 29.9983V23.9986C60 23.7334 59.8946 23.4791 59.7071 23.2916C59.5196 23.104 59.2653 22.9987 59.0001 22.9987H56.4676C57.2046 22.1771 57.7005 21.1679 57.9007 20.0825C58.1008 18.9971 57.9975 17.8775 57.6021 16.847C57.2066 15.8165 56.5344 14.9152 55.6595 14.2423C54.7846 13.5695 53.7409 13.1512 52.6434 13.0335C53.078 11.8293 53.1159 10.5176 52.7514 9.2903C52.387 8.06303 51.6394 6.98455 50.6181 6.21264C49.5967 5.44073 48.3551 5.01589 47.075 5.00027C45.7948 4.98465 44.5433 5.37906 43.5034 6.12582C42.0161 4.17219 39.625 2.99988 37.0014 2.99988C33.8669 2.99988 31.088 4.67828 29.7778 7.269C28.8801 6.9905 27.9295 6.92687 27.0026 7.08325C26.0758 7.23962 25.1987 7.61163 24.442 8.16926C23.6853 8.72689 23.0703 9.4545 22.6465 10.2935C22.2227 11.1325 22.0021 12.0593 22.0023 12.9993C22.0023 13.0668 22.0045 13.134 22.0068 13.2014C21.313 13.3419 20.636 13.5556 19.9873 13.8389C19.5226 12.9513 18.9133 12.1473 18.1844 11.4599C16.9479 10.2847 16.1826 8.69882 16.0319 6.99964H17.0026C17.2678 6.99964 17.5221 6.89429 17.7096 6.70677C17.8972 6.51924 18.0025 6.2649 18.0025 5.9997V3.99982C18.0016 3.20449 17.6853 2.442 17.1229 1.87961C16.5605 1.31723 15.798 1.00089 15.0027 1H9.00305C8.20772 1.00089 7.44523 1.31723 6.88285 1.87961C6.32046 2.442 6.00413 3.20449 6.00323 3.99982V5.9997C6.00323 6.2649 6.10858 6.51924 6.29611 6.70677C6.48363 6.89429 6.73797 6.99964 7.00317 6.99964H7.97386C7.82322 8.69887 7.05788 10.2848 5.82137 11.46C4.92748 12.2978 4.21589 13.3108 3.73104 14.4359C3.2462 15.5609 2.9985 16.7739 3.00341 17.999C3.0029 18.7374 3.2759 19.4499 3.76974 19.9989C3.2759 20.5479 3.0029 21.2603 3.00341 21.9987V22.9987H1.00353C0.738331 22.9987 0.483992 23.104 0.296467 23.2916C0.108942 23.4791 0.00359171 23.7334 0.00359171 23.9986V29.9983C0.00382492 30.2401 0.0916693 30.4736 0.250858 30.6556C0.410048 30.8376 0.629797 30.9558 0.869415 30.9882L2.35995 42.9125L0.37032 46.5598C0.104386 47.0435 -0.0226292 47.5914 0.00330717 48.1429C0.0292435 48.6943 0.207122 49.2279 0.517289 49.6845C0.827455 50.1412 1.25783 50.5033 1.76087 50.7307C2.26391 50.9581 2.82002 51.042 3.36777 50.9731L3.69937 53.6267C3.93948 55.5481 5.64675 56.9966 7.67088 56.9966H52.3327C54.3567 56.9966 56.0641 55.5481 56.3042 53.6272L56.6411 50.9323C57.2607 51.0097 57.889 50.8894 58.4362 50.5884C58.7821 50.3998 59.0874 50.1449 59.3347 49.8382C59.582 49.5316 59.7665 49.1793 59.8777 48.8013C59.9888 48.4234 60.0245 48.0273 59.9825 47.6356C59.9406 47.2438 59.8219 46.8642 59.6333 46.5184L57.6479 42.8784ZM58.0001 24.9986V28.9983H50.077L47.8952 24.9986H58.0001ZM57.1173 30.9982L56.0081 39.8727L51.1678 30.9982H57.1173ZM28.0019 8.99952C28.6466 8.99774 29.2819 9.1536 29.8526 9.4536C29.9808 9.5208 30.1221 9.5594 30.2667 9.5666C30.4113 9.5738 30.5557 9.5496 30.69 9.4955C30.8243 9.4415 30.9453 9.3589 31.0446 9.2535C31.1438 9.1481 31.219 9.0225 31.265 8.88515C32.0423 6.56117 34.3479 4.99976 37.0014 4.99976C39.2887 4.99976 41.4105 6.22194 42.4071 8.11332C42.4821 8.25567 42.5903 8.37782 42.7226 8.4694C42.8549 8.56097 43.0073 8.61927 43.167 8.63935C43.3266 8.65942 43.4887 8.64067 43.6396 8.58469C43.7904 8.52872 43.9256 8.43716 44.0335 8.31781C44.5754 7.7182 45.2863 7.29684 46.0725 7.10926C46.8587 6.92167 47.6832 6.97667 48.4375 7.26699C49.1918 7.55732 49.8405 8.06935 50.298 8.73563C50.7555 9.4019 51.0005 10.1912 51.0005 10.9994C51.0038 11.9076 50.6943 12.7893 50.1242 13.4963C49.9948 13.658 49.9188 13.8559 49.9066 14.0626C49.8945 14.2694 49.9469 14.4749 50.0566 14.6506C50.1663 14.8263 50.3278 14.9636 50.5189 15.0435C50.71 15.1235 50.9212 15.1421 51.1233 15.0969C51.6722 14.9733 52.2409 14.9669 52.7925 15.078C53.344 15.1892 53.8659 15.4155 54.324 15.7421C54.7821 16.0687 55.1662 16.4883 55.4511 16.9735C55.736 17.4586 55.9154 17.9984 55.9775 18.5576C56.0395 19.1168 55.9829 19.6828 55.8114 20.2186C55.6398 20.7545 55.3571 21.2481 54.9818 21.6672C54.6064 22.0863 54.1469 22.4216 53.6332 22.651C53.1195 22.8804 52.5631 22.9989 52.0005 22.9987H49.5415C49.0525 21.4446 48.1913 20.0336 47.0328 18.8882C45.8742 17.7428 44.4534 16.8977 42.8938 16.4266C41.3343 15.9554 39.6833 15.8723 38.0843 16.1845C36.4854 16.4968 34.9869 17.1949 33.7192 18.2182C33.495 18.3996 33.2794 18.5902 33.0725 18.7898C32.2702 17.0601 30.99 15.596 29.3829 14.57C27.7758 13.544 25.9088 12.999 24.0022 12.9993C24.0033 11.9388 24.4251 10.9222 25.175 10.1723C25.9248 9.4225 26.9415 9.0007 28.0019 8.99952ZM47.4174 22.9987H32.585C33.0971 21.7391 33.9198 20.6296 34.9765 19.7739C36.3994 18.6255 38.1727 17.9992 40.0012 17.9992C41.8297 17.9992 43.603 18.6255 45.0259 19.7739C46.0826 20.6296 46.9053 21.7391 47.4174 22.9987ZM20.7107 15.7066C22.0601 15.0983 23.5516 14.8759 25.0197 15.0644C26.4878 15.2528 27.8749 15.8446 29.0269 16.7741C30.239 17.7553 31.1398 19.0677 31.6197 20.5516C31.1244 21.311 30.7346 22.1343 30.4609 22.9987H21.0023V21.9987C21.0028 21.2603 20.7298 20.5479 20.236 19.9989C20.7298 19.4499 21.0028 18.7374 21.0023 17.999C21.0032 17.2256 20.9052 16.4552 20.7107 15.7066ZM44.6679 24.9986L42.7659 26.036C42.5331 26.163 42.3603 26.3773 42.2854 26.6317C42.2106 26.8861 42.2399 27.1599 42.3669 27.3927L43.2428 28.9983H16.7836L17.6365 27.4347C17.7635 27.2019 17.7928 26.9281 17.718 26.6737C17.6432 26.4193 17.4704 26.205 17.2376 26.078L15.2587 24.9986H44.6679ZM8.00311 3.99982C8.00341 3.73471 8.10886 3.48055 8.29632 3.29308C8.48378 3.10562 8.73794 3.00018 9.00305 2.99988H15.0027C15.2678 3.00018 15.522 3.10562 15.7094 3.29308C15.8969 3.48055 16.0023 3.73471 16.0026 3.99982V4.99976H8.00311V3.99982ZM15.2813 10.9994H8.72444C9.45042 9.7829 9.88021 8.41281 9.97912 6.99964H14.0266C14.1255 8.41281 14.5553 9.7829 15.2813 10.9994ZM7.10879 12.9993H16.897C17.5662 13.6481 18.0977 14.4254 18.4595 15.2845C18.8213 16.1435 19.0059 17.0668 19.0025 17.999C19.0022 18.2641 18.8967 18.5183 18.7092 18.7057C18.5218 18.8932 18.2676 18.9986 18.0025 18.9989H6.00323C5.73812 18.9986 5.48396 18.8932 5.2965 18.7057C5.10904 18.5183 5.00359 18.2641 5.00329 17.999C4.9998 17.0668 5.18447 16.1435 5.54626 15.2844C5.90804 14.4254 6.4395 13.6481 7.10879 12.9993ZM5.00329 21.9987C5.00359 21.7336 5.10904 21.4795 5.2965 21.292C5.48396 21.1045 5.73812 20.9991 6.00323 20.9988H18.0025C18.2676 20.9991 18.5218 21.1045 18.7092 21.292C18.8967 21.4795 19.0022 21.7336 19.0025 21.9987V22.9987H5.00329V21.9987ZM2.00347 28.9983V24.9986H12.1312L9.94962 28.9983H2.00347ZM8.85869 30.9982L3.99973 39.9063L2.88617 30.9982H8.85869ZM3.88161 48.4757C3.7954 48.6336 3.66821 48.7654 3.51343 48.8572C3.35864 48.9489 3.18198 48.9973 3.00204 48.9971C2.83522 48.9973 2.67108 48.9552 2.52494 48.8748C2.29236 48.7475 2.11972 48.5333 2.0449 48.2789C1.97009 48.0246 1.99919 47.751 2.12584 47.5181L13.6464 26.3971L15.402 27.3548L3.88161 48.4757ZM54.3197 53.3792C54.2045 54.3014 53.3503 54.9968 52.3323 54.9968H7.67088C6.65332 54.9968 5.79912 54.3014 5.6835 53.3792L5.2579 49.9742C5.40378 49.8084 5.53092 49.627 5.637 49.4333L13.0028 35.9299V40.9976C13.0028 41.2628 13.1082 41.5171 13.2957 41.7047C13.4832 41.8922 13.7376 41.9975 14.0028 41.9975C14.268 41.9975 14.5223 41.8922 14.7098 41.7047C14.8973 41.5171 15.0027 41.2628 15.0027 40.9976V34.998C15.0026 34.742 14.9042 34.4958 14.7279 34.3102C14.5516 34.1247 14.3108 34.0138 14.0551 34.0006L15.6928 30.9982H44.3336L45.971 33.9995C45.7112 34.0071 45.4646 34.1156 45.2834 34.302C45.1023 34.4884 45.001 34.7381 45.0009 34.998V40.9976C45.0009 41.2628 45.1062 41.5171 45.2938 41.7047C45.4813 41.8922 45.7356 41.9975 46.0008 41.9975C46.266 41.9975 46.5204 41.8922 46.7079 41.7047C46.8954 41.5171 47.0008 41.2628 47.0008 40.9976V35.8882L54.3662 49.3914C54.4734 49.5871 54.6021 49.7702 54.7499 49.9373L54.3197 53.3792ZM57.9591 48.237C57.9034 48.4269 57.7926 48.5959 57.6407 48.7227C57.4889 48.8495 57.3029 48.9284 57.1062 48.9495C56.9095 48.9705 56.7109 48.9328 56.5357 48.841C56.3605 48.7492 56.2164 48.6075 56.1217 48.4338L44.6009 27.3129L46.3567 26.3552L57.8776 47.4761C57.9408 47.5913 57.9806 47.7178 57.9945 47.8484C58.0085 47.979 57.9965 48.1111 57.9591 48.237Z" fill="#F37321"/>
<path d="M10.0033 43.9973C9.7381 43.9973 9.48376 44.1027 9.29623 44.2902C9.10871 44.4777 9.00336 44.7321 9.00336 44.9973V50.9969C9.00336 51.2621 9.10871 51.5164 9.29623 51.704C9.48376 51.8915 9.7381 51.9968 10.0033 51.9968C10.2685 51.9968 10.5228 51.8915 10.7104 51.704C10.8979 51.5164 11.0032 51.2621 11.0032 50.9969V44.9973C11.0032 44.7321 10.8979 44.4777 10.7104 44.2902C10.5228 44.1027 10.2685 43.9973 10.0033 43.9973Z" stroke="#F37321" stroke-width="0.5"/>
<path d="M14.0031 43.9973C13.7379 43.9973 13.4835 44.1027 13.296 44.2902C13.1085 44.4777 13.0031 44.7321 13.0031 44.9973V50.9969C13.0031 51.2621 13.1085 51.5164 13.296 51.704C13.4835 51.8915 13.7379 51.9968 14.0031 51.9968C14.2683 51.9968 14.5226 51.8915 14.7101 51.704C14.8977 51.5164 15.003 51.2621 15.003 50.9969V44.9973C15.003 44.7321 14.8977 44.4777 14.7101 44.2902C14.5226 44.1027 14.2683 43.9973 14.0031 43.9973Z" stroke="#F37321" stroke-width="0.5"/>
<path d="M18.0028 33.998C17.7376 33.998 17.4833 34.1034 17.2958 34.2909C17.1082 34.4784 17.0029 34.7328 17.0029 34.998V40.9976C17.0029 41.2628 17.1082 41.5171 17.2958 41.7047C17.4833 41.8922 17.7376 41.9975 18.0028 41.9975C18.268 41.9975 18.5224 41.8922 18.7099 41.7047C18.8974 41.5171 19.0028 41.2628 19.0028 40.9976V34.998C19.0028 34.7328 18.8974 34.4784 18.7099 34.2909C18.5224 34.1034 18.268 33.998 18.0028 33.998Z" stroke="#F37321" stroke-width="0.5"/>
<path d="M18.0028 43.9973C17.7376 43.9973 17.4833 44.1027 17.2958 44.2902C17.1082 44.4777 17.0029 44.7321 17.0029 44.9973V50.9969C17.0029 51.2621 17.1082 51.5164 17.2958 51.704C17.4833 51.8915 17.7376 51.9968 18.0028 51.9968C18.268 51.9968 18.5224 51.8915 18.7099 51.704C18.8974 51.5164 19.0028 51.2621 19.0028 50.9969V44.9973C19.0028 44.7321 18.8974 44.4777 18.7099 44.2902C18.5224 44.1027 18.268 43.9973 18.0028 43.9973Z" stroke="#F37321" stroke-width="0.5"/>
<path d="M22.0026 33.998C21.7374 33.998 21.483 34.1034 21.2955 34.2909C21.108 34.4784 21.0026 34.7328 21.0026 34.998V40.9976C21.0026 41.2628 21.108 41.5171 21.2955 41.7047C21.483 41.8922 21.7374 41.9975 22.0026 41.9975C22.2678 41.9975 22.5221 41.8922 22.7097 41.7047C22.8972 41.5171 23.0025 41.2628 23.0025 40.9976V34.998C23.0025 34.7328 22.8972 34.4784 22.7097 34.2909C22.5221 34.1034 22.2678 33.998 22.0026 33.998Z" stroke="#F37321" stroke-width="0.5"/>
<path d="M22.0026 43.9973C21.7374 43.9973 21.483 44.1027 21.2955 44.2902C21.108 44.4777 21.0026 44.7321 21.0026 44.9973V50.9969C21.0026 51.2621 21.108 51.5164 21.2955 51.704C21.483 51.8915 21.7374 51.9968 22.0026 51.9968C22.2678 51.9968 22.5221 51.8915 22.7097 51.704C22.8972 51.5164 23.0025 51.2621 23.0025 50.9969V44.9973C23.0025 44.7321 22.8972 44.4777 22.7097 44.2902C22.5221 44.1027 22.2678 43.9973 22.0026 43.9973Z" stroke="#F37321" stroke-width="0.5"/>
<path d="M38.0016 33.998C37.7364 33.998 37.4821 34.1034 37.2946 34.2909C37.107 34.4784 37.0017 34.7328 37.0017 34.998V40.9976C37.0017 41.2628 37.107 41.5171 37.2946 41.7047C37.4821 41.8922 37.7364 41.9975 38.0016 41.9975C38.2668 41.9975 38.5212 41.8922 38.7087 41.7047C38.8962 41.5171 39.0016 41.2628 39.0016 40.9976V34.998C39.0016 34.7328 38.8962 34.4784 38.7087 34.2909C38.5212 34.1034 38.2668 33.998 38.0016 33.998Z" stroke="#F37321" stroke-width="0.5"/>
<path d="M38.0016 43.9973C37.7364 43.9973 37.4821 44.1027 37.2946 44.2902C37.107 44.4777 37.0017 44.7321 37.0017 44.9973V50.9969C37.0017 51.2621 37.107 51.5164 37.2946 51.704C37.4821 51.8915 37.7364 51.9968 38.0016 51.9968C38.2668 51.9968 38.5212 51.8915 38.7087 51.704C38.8962 51.5164 39.0016 51.2621 39.0016 50.9969V44.9973C39.0016 44.7321 38.8962 44.4777 38.7087 44.2902C38.5212 44.1027 38.2668 43.9973 38.0016 43.9973Z" stroke="#F37321" stroke-width="0.5"/>
<path d="M42.0014 33.998C41.7362 33.998 41.4818 34.1034 41.2943 34.2909C41.1068 34.4784 41.0015 34.7328 41.0015 34.998V40.9976C41.0015 41.2628 41.1068 41.5171 41.2943 41.7047C41.4818 41.8922 41.7362 41.9975 42.0014 41.9975C42.2666 41.9975 42.5209 41.8922 42.7085 41.7047C42.896 41.5171 43.0013 41.2628 43.0013 40.9976V34.998C43.0013 34.7328 42.896 34.4784 42.7085 34.2909C42.5209 34.1034 42.2666 33.998 42.0014 33.998Z" stroke="#F37321" stroke-width="0.5"/>
<path d="M42.0014 43.9973C41.7362 43.9973 41.4818 44.1027 41.2943 44.2902C41.1068 44.4777 41.0015 44.7321 41.0015 44.9973V50.9969C41.0015 51.2621 41.1068 51.5164 41.2943 51.704C41.4818 51.8915 41.7362 51.9968 42.0014 51.9968C42.2666 51.9968 42.5209 51.8915 42.7085 51.704C42.896 51.5164 43.0013 51.2621 43.0013 50.9969V44.9973C43.0013 44.7321 42.896 44.4777 42.7085 44.2902C42.5209 44.1027 42.2666 43.9973 42.0014 43.9973Z" stroke="#F37321" stroke-width="0.5"/>
<path d="M46.0012 43.9973C45.736 43.9973 45.4816 44.1027 45.2941 44.2902C45.1066 44.4777 45.0012 44.7321 45.0012 44.9973V50.9969C45.0012 51.2621 45.1066 51.5164 45.2941 51.704C45.4816 51.8915 45.736 51.9968 46.0012 51.9968C46.2664 51.9968 46.5207 51.8915 46.7082 51.704C46.8957 51.5164 47.0011 51.2621 47.0011 50.9969V44.9973C47.0011 44.7321 46.8957 44.4777 46.7082 44.2902C46.5207 44.1027 46.2664 43.9973 46.0012 43.9973Z" stroke="#F37321" stroke-width="0.5"/>
<path d="M50.0009 43.9973C49.7357 43.9973 49.4814 44.1027 49.2938 44.2902C49.1063 44.4777 49.001 44.7321 49.001 44.9973V50.9969C49.001 51.2621 49.1063 51.5164 49.2938 51.704C49.4814 51.8915 49.7357 51.9968 50.0009 51.9968C50.2661 51.9968 50.5205 51.8915 50.708 51.704C50.8955 51.5164 51.0009 51.2621 51.0009 50.9969V44.9973C51.0009 44.7321 50.8955 44.4777 50.708 44.2902C50.5205 44.1027 50.2661 43.9973 50.0009 43.9973Z" stroke="#F37321" stroke-width="0.5"/>
<path d="M30.0021 33.998C29.7369 33.998 29.4826 34.1034 29.295 34.2909C29.1075 34.4784 29.0022 34.7328 29.0022 34.998V40.9976C29.0022 41.2628 29.1075 41.5171 29.295 41.7047C29.4826 41.8922 29.7369 41.9975 30.0021 41.9975C30.2673 41.9975 30.5217 41.8922 30.7092 41.7047C30.8967 41.5171 31.0021 41.2628 31.0021 40.9976V34.998C31.0021 34.7328 30.8967 34.4784 30.7092 34.2909C30.5217 34.1034 30.2673 33.998 30.0021 33.998Z" stroke="#F37321" stroke-width="0.5"/>
<path d="M30.0021 43.9973C29.7369 43.9973 29.4826 44.1027 29.295 44.2902C29.1075 44.4777 29.0022 44.7321 29.0022 44.9973V50.9969C29.0022 51.2621 29.1075 51.5164 29.295 51.704C29.4826 51.8915 29.7369 51.9968 30.0021 51.9968C30.2673 51.9968 30.5217 51.8915 30.7092 51.704C30.8967 51.5164 31.0021 51.2621 31.0021 50.9969V44.9973C31.0021 44.7321 30.8967 44.4777 30.7092 44.2902C30.5217 44.1027 30.2673 43.9973 30.0021 43.9973Z" stroke="#F37321" stroke-width="0.5"/>
<path d="M26.0023 33.998C25.7372 33.998 25.4828 34.1034 25.2953 34.2909C25.1078 34.4784 25.0024 34.7328 25.0024 34.998V40.9976C25.0024 41.2628 25.1078 41.5171 25.2953 41.7047C25.4828 41.8922 25.7372 41.9975 26.0023 41.9975C26.2676 41.9975 26.5219 41.8922 26.7094 41.7047C26.8969 41.5171 27.0023 41.2628 27.0023 40.9976V34.998C27.0023 34.7328 26.8969 34.4784 26.7094 34.2909C26.5219 34.1034 26.2676 33.998 26.0023 33.998Z" stroke="#F37321" stroke-width="0.5"/>
<path d="M26.0023 43.9973C25.7372 43.9973 25.4828 44.1027 25.2953 44.2902C25.1078 44.4777 25.0024 44.7321 25.0024 44.9973V50.9969C25.0024 51.2621 25.1078 51.5164 25.2953 51.704C25.4828 51.8915 25.7372 51.9968 26.0023 51.9968C26.2676 51.9968 26.5219 51.8915 26.7094 51.704C26.8969 51.5164 27.0023 51.2621 27.0023 50.9969V44.9973C27.0023 44.7321 26.8969 44.4777 26.7094 44.2902C26.5219 44.1027 26.2676 43.9973 26.0023 43.9973Z" stroke="#F37321" stroke-width="0.5"/>
<path d="M34.0019 33.998C33.7367 33.998 33.4823 34.1034 33.2948 34.2909C33.1073 34.4784 33.0019 34.7328 33.0019 34.998V40.9976C33.0019 41.2628 33.1073 41.5171 33.2948 41.7047C33.4823 41.8922 33.7367 41.9975 34.0019 41.9975C34.2671 41.9975 34.5214 41.8922 34.7089 41.7047C34.8965 41.5171 35.0018 41.2628 35.0018 40.9976V34.998C35.0018 34.7328 34.8965 34.4784 34.7089 34.2909C34.5214 34.1034 34.2671 33.998 34.0019 33.998Z" stroke="#F37321" stroke-width="0.5"/>
<path d="M34.0019 43.9973C33.7367 43.9973 33.4823 44.1027 33.2948 44.2902C33.1073 44.4777 33.0019 44.7321 33.0019 44.9973V50.9969C33.0019 51.2621 33.1073 51.5164 33.2948 51.704C33.4823 51.8915 33.7367 51.9968 34.0019 51.9968C34.2671 51.9968 34.5214 51.8915 34.7089 51.704C34.8965 51.5164 35.0018 51.2621 35.0018 50.9969V44.9973C35.0018 44.7321 34.8965 44.4777 34.7089 44.2902C34.5214 44.1027 34.2671 43.9973 34.0019 43.9973Z" stroke="#F37321" stroke-width="0.5"/>
<path d="M57.6479 42.8784L59.1342 30.9882C59.3738 30.9558 59.5935 30.8376 59.7527 30.6556C59.9119 30.4736 59.9998 30.2401 60 29.9983V23.9986C60 23.7334 59.8946 23.4791 59.7071 23.2916C59.5196 23.104 59.2653 22.9987 59.0001 22.9987H56.4676C57.2046 22.1771 57.7005 21.1679 57.9007 20.0825C58.1008 18.9971 57.9975 17.8775 57.6021 16.847C57.2066 15.8165 56.5344 14.9152 55.6595 14.2423C54.7846 13.5695 53.7409 13.1512 52.6434 13.0335C53.078 11.8293 53.1159 10.5176 52.7514 9.2903C52.387 8.06303 51.6394 6.98455 50.6181 6.21264C49.5967 5.44073 48.3551 5.01589 47.075 5.00027C45.7948 4.98465 44.5433 5.37906 43.5034 6.12582C42.0161 4.17219 39.625 2.99988 37.0014 2.99988C33.8669 2.99988 31.088 4.67828 29.7778 7.269C28.8801 6.9905 27.9295 6.92687 27.0026 7.08325C26.0758 7.23962 25.1987 7.61163 24.442 8.16926C23.6853 8.72689 23.0703 9.4545 22.6465 10.2935C22.2227 11.1325 22.0021 12.0593 22.0023 12.9993C22.0023 13.0668 22.0045 13.134 22.0068 13.2014C21.313 13.3419 20.636 13.5556 19.9873 13.8389C19.5226 12.9513 18.9133 12.1473 18.1844 11.4599C16.9479 10.2847 16.1826 8.69882 16.0319 6.99964H17.0026C17.2678 6.99964 17.5221 6.89429 17.7096 6.70677C17.8972 6.51924 18.0025 6.2649 18.0025 5.9997V3.99982C18.0016 3.20449 17.6853 2.442 17.1229 1.87961C16.5605 1.31723 15.798 1.00089 15.0027 1H9.00305C8.20772 1.00089 7.44523 1.31723 6.88285 1.87961C6.32046 2.442 6.00413 3.20449 6.00323 3.99982V5.9997C6.00323 6.2649 6.10858 6.51924 6.29611 6.70677C6.48363 6.89429 6.73797 6.99964 7.00317 6.99964H7.97386C7.82322 8.69887 7.05788 10.2848 5.82137 11.46C4.92748 12.2978 4.21589 13.3108 3.73104 14.4359C3.2462 15.5609 2.9985 16.7739 3.00341 17.999C3.0029 18.7374 3.2759 19.4499 3.76974 19.9989C3.2759 20.5479 3.0029 21.2603 3.00341 21.9987V22.9987H1.00353C0.738331 22.9987 0.483992 23.104 0.296467 23.2916C0.108942 23.4791 0.00359171 23.7334 0.00359171 23.9986V29.9983C0.00382492 30.2401 0.0916693 30.4736 0.250858 30.6556C0.410048 30.8376 0.629797 30.9558 0.869415 30.9882L2.35995 42.9125L0.37032 46.5598C0.104386 47.0435 -0.0226292 47.5914 0.00330717 48.1429C0.0292435 48.6943 0.207122 49.2279 0.517289 49.6845C0.827455 50.1412 1.25783 50.5033 1.76087 50.7307C2.26391 50.9581 2.82002 51.042 3.36777 50.9731L3.69937 53.6267C3.93948 55.5481 5.64675 56.9966 7.67088 56.9966H52.3327C54.3567 56.9966 56.0641 55.5481 56.3042 53.6272L56.6411 50.9323C57.2607 51.0097 57.889 50.8894 58.4362 50.5884C58.7821 50.3998 59.0874 50.1449 59.3347 49.8382C59.582 49.5316 59.7665 49.1793 59.8777 48.8013C59.9888 48.4234 60.0245 48.0273 59.9825 47.6356C59.9406 47.2438 59.8219 46.8642 59.6333 46.5184L57.6479 42.8784ZM58.0001 24.9986V28.9983H50.077L47.8952 24.9986H58.0001ZM57.1173 30.9982L56.0081 39.8727L51.1678 30.9982H57.1173ZM28.0019 8.99952C28.6466 8.99774 29.2819 9.1536 29.8526 9.4536C29.9808 9.5208 30.1221 9.5594 30.2667 9.5666C30.4113 9.5738 30.5557 9.5496 30.69 9.4955C30.8243 9.4415 30.9453 9.3589 31.0446 9.2535C31.1438 9.1481 31.219 9.0225 31.265 8.88515C32.0423 6.56117 34.3479 4.99976 37.0014 4.99976C39.2887 4.99976 41.4105 6.22194 42.4071 8.11332C42.4821 8.25567 42.5903 8.37782 42.7226 8.4694C42.8549 8.56097 43.0073 8.61927 43.167 8.63935C43.3266 8.65942 43.4887 8.64067 43.6396 8.58469C43.7904 8.52872 43.9256 8.43716 44.0335 8.31781C44.5754 7.7182 45.2863 7.29684 46.0725 7.10926C46.8587 6.92167 47.6832 6.97667 48.4375 7.26699C49.1918 7.55732 49.8405 8.06935 50.298 8.73563C50.7555 9.4019 51.0005 10.1912 51.0005 10.9994C51.0038 11.9076 50.6943 12.7893 50.1242 13.4963C49.9948 13.658 49.9188 13.8559 49.9066 14.0626C49.8945 14.2694 49.9469 14.4749 50.0566 14.6506C50.1663 14.8263 50.3278 14.9636 50.5189 15.0435C50.71 15.1235 50.9212 15.1421 51.1233 15.0969C51.6722 14.9733 52.2409 14.9669 52.7925 15.078C53.344 15.1892 53.8659 15.4155 54.324 15.7421C54.7821 16.0687 55.1662 16.4883 55.4511 16.9735C55.736 17.4586 55.9154 17.9984 55.9775 18.5576C56.0395 19.1168 55.9829 19.6828 55.8114 20.2186C55.6398 20.7545 55.3571 21.2481 54.9818 21.6672C54.6064 22.0863 54.1469 22.4216 53.6332 22.651C53.1195 22.8804 52.5631 22.9989 52.0005 22.9987H49.5415C49.0525 21.4446 48.1913 20.0336 47.0328 18.8882C45.8742 17.7428 44.4534 16.8977 42.8938 16.4266C41.3343 15.9554 39.6833 15.8723 38.0843 16.1845C36.4854 16.4968 34.9869 17.1949 33.7192 18.2182C33.495 18.3996 33.2794 18.5902 33.0725 18.7898C32.2702 17.0601 30.99 15.596 29.3829 14.57C27.7758 13.544 25.9088 12.999 24.0022 12.9993C24.0033 11.9388 24.4251 10.9222 25.175 10.1723C25.9248 9.4225 26.9415 9.0007 28.0019 8.99952ZM47.4174 22.9987H32.585C33.0971 21.7391 33.9198 20.6296 34.9765 19.7739C36.3994 18.6255 38.1727 17.9992 40.0012 17.9992C41.8297 17.9992 43.603 18.6255 45.0259 19.7739C46.0826 20.6296 46.9053 21.7391 47.4174 22.9987ZM20.7107 15.7066C22.0601 15.0983 23.5516 14.8759 25.0197 15.0644C26.4878 15.2528 27.8749 15.8446 29.0269 16.7741C30.239 17.7553 31.1398 19.0677 31.6197 20.5516C31.1244 21.311 30.7346 22.1343 30.4609 22.9987H21.0023V21.9987C21.0028 21.2603 20.7298 20.5479 20.236 19.9989C20.7298 19.4499 21.0028 18.7374 21.0023 17.999C21.0032 17.2256 20.9052 16.4552 20.7107 15.7066ZM44.6679 24.9986L42.7659 26.036C42.5331 26.163 42.3603 26.3773 42.2854 26.6317C42.2106 26.8861 42.2399 27.1599 42.3669 27.3927L43.2428 28.9983H16.7836L17.6365 27.4347C17.7635 27.2019 17.7928 26.9281 17.718 26.6737C17.6432 26.4193 17.4704 26.205 17.2376 26.078L15.2587 24.9986H44.6679ZM8.00311 3.99982C8.00341 3.73471 8.10886 3.48055 8.29632 3.29308C8.48378 3.10562 8.73794 3.00018 9.00305 2.99988H15.0027C15.2678 3.00018 15.522 3.10562 15.7094 3.29308C15.8969 3.48055 16.0023 3.73471 16.0026 3.99982V4.99976H8.00311V3.99982ZM15.2813 10.9994H8.72444C9.45042 9.7829 9.88021 8.41281 9.97912 6.99964H14.0266C14.1255 8.41281 14.5553 9.7829 15.2813 10.9994ZM7.10879 12.9993H16.897C17.5662 13.6481 18.0977 14.4254 18.4595 15.2845C18.8213 16.1435 19.0059 17.0668 19.0025 17.999C19.0022 18.2641 18.8967 18.5183 18.7092 18.7057C18.5218 18.8932 18.2676 18.9986 18.0025 18.9989H6.00323C5.73812 18.9986 5.48396 18.8932 5.2965 18.7057C5.10904 18.5183 5.00359 18.2641 5.00329 17.999C4.9998 17.0668 5.18447 16.1435 5.54626 15.2844C5.90804 14.4254 6.4395 13.6481 7.10879 12.9993ZM5.00329 21.9987C5.00359 21.7336 5.10904 21.4795 5.2965 21.292C5.48396 21.1045 5.73812 20.9991 6.00323 20.9988H18.0025C18.2676 20.9991 18.5218 21.1045 18.7092 21.292C18.8967 21.4795 19.0022 21.7336 19.0025 21.9987V22.9987H5.00329V21.9987ZM2.00347 28.9983V24.9986H12.1312L9.94962 28.9983H2.00347ZM8.85869 30.9982L3.99973 39.9063L2.88617 30.9982H8.85869ZM3.88161 48.4757C3.7954 48.6336 3.66821 48.7654 3.51343 48.8572C3.35864 48.9489 3.18198 48.9973 3.00204 48.9971C2.83522 48.9973 2.67108 48.9552 2.52494 48.8748C2.29236 48.7475 2.11972 48.5333 2.0449 48.2789C1.97009 48.0246 1.99919 47.751 2.12584 47.5181L13.6464 26.3971L15.402 27.3548L3.88161 48.4757ZM54.3197 53.3792C54.2045 54.3014 53.3503 54.9968 52.3323 54.9968H7.67088C6.65332 54.9968 5.79912 54.3014 5.6835 53.3792L5.2579 49.9742C5.40378 49.8084 5.53092 49.627 5.637 49.4333L13.0028 35.9299V40.9976C13.0028 41.2628 13.1082 41.5171 13.2957 41.7047C13.4832 41.8922 13.7376 41.9975 14.0028 41.9975C14.268 41.9975 14.5223 41.8922 14.7098 41.7047C14.8973 41.5171 15.0027 41.2628 15.0027 40.9976V34.998C15.0026 34.742 14.9042 34.4958 14.7279 34.3102C14.5516 34.1247 14.3108 34.0138 14.0551 34.0006L15.6928 30.9982H44.3336L45.971 33.9995C45.7112 34.0071 45.4646 34.1156 45.2834 34.302C45.1023 34.4884 45.001 34.7381 45.0009 34.998V40.9976C45.0009 41.2628 45.1062 41.5171 45.2938 41.7047C45.4813 41.8922 45.7356 41.9975 46.0008 41.9975C46.266 41.9975 46.5204 41.8922 46.7079 41.7047C46.8954 41.5171 47.0008 41.2628 47.0008 40.9976V35.8882L54.3662 49.3914C54.4734 49.5871 54.6021 49.7702 54.7499 49.9373L54.3197 53.3792ZM57.9591 48.237C57.9034 48.4269 57.7926 48.5959 57.6407 48.7227C57.4889 48.8495 57.3029 48.9284 57.1062 48.9495C56.9095 48.9705 56.7109 48.9328 56.5357 48.841C56.3605 48.7492 56.2164 48.6075 56.1217 48.4338L44.6009 27.3129L46.3567 26.3552L57.8776 47.4761C57.9408 47.5913 57.9806 47.7178 57.9945 47.8484C58.0085 47.979 57.9965 48.1111 57.9591 48.237Z" stroke="#F37321" stroke-width="0.5"/>
</symbol>

<symbol id="card2" width="58" height="59" viewBox="0 0 58 59" xmlns="http://www.w3.org/2000/svg">
<path d="M51.3201 26.15C51.0201 26.06 50.7101 26.1 50.4301 26.26C50.1601 26.42 49.9601 26.69 49.8801 27.01C49.7301 27.64 50.1201 28.28 50.7601 28.45C55.3801 29.7 55.3801 31.2 55.3801 32.19C55.3801 33.01 54.1001 34.01 51.9301 34.9C51.9001 34.78 51.8701 34.66 51.8401 34.54C51.6001 33.55 51.3701 32.61 49.4901 31.87C49.2001 31.76 48.8901 31.77 48.6101 31.91C48.3201 32.05 48.1001 32.32 48.0001 32.64C47.8301 33.23 48.1601 33.88 48.7601 34.15C49.7801 34.6 49.7501 35.01 49.7201 35.45C49.7201 35.52 49.7101 35.6 49.7101 35.67C45.5701 36.9 40.0201 37.57 34.0501 37.57C28.1201 37.57 22.6001 36.9 18.4701 35.69C18.9501 35.04 21.0301 33.82 25.7901 33.06C26.4301 32.96 26.8901 32.35 26.8001 31.71C26.7601 31.39 26.5901 31.11 26.3301 30.92C26.0801 30.73 25.7601 30.66 25.4501 30.7C22.9801 31.1 20.8501 31.66 19.3001 32.35C17.6601 33.07 16.6201 33.93 16.2001 34.9C14.0201 34.02 12.7301 33.01 12.7301 32.19C12.7301 31.94 12.9401 30.61 17.0301 29.15C19.9401 28.11 24.0201 27.36 28.5001 27.02C29.1501 26.97 29.6501 26.4 29.6101 25.76C29.5901 25.44 29.4501 25.15 29.2101 24.94C28.9701 24.73 28.6601 24.63 28.3501 24.65C23.6501 25 19.3501 25.81 16.2401 26.92C11.3801 28.65 10.3601 30.74 10.3601 32.2C10.3601 34.21 10.7301 36.19 11.4601 38.06L13.0201 42.06C13.1401 42.35 13.3601 42.59 13.6501 42.72C13.9401 42.85 14.2601 42.85 14.5601 42.74C14.8501 42.62 15.0901 42.4 15.2201 42.11C15.3501 41.82 15.3501 41.5 15.2401 41.2L13.6801 37.2C13.5501 36.86 13.4301 36.51 13.3201 36.15C14.4901 36.83 15.9901 37.44 17.8101 37.97C22.1701 39.24 27.9301 39.94 34.0501 39.94C40.1701 39.94 45.9401 39.24 50.2901 37.97C52.1101 37.44 53.6101 36.83 54.7801 36.15C54.6701 36.5 54.5501 36.85 54.4201 37.2L51.2001 45.48C51.0101 45.96 50.7801 46.42 50.5101 46.85C50.1601 47.41 50.2701 48.13 50.7601 48.53C50.9701 48.7 51.2301 48.78 51.4901 48.78C51.5501 48.78 51.6101 48.78 51.6701 48.77C51.9801 48.72 52.2401 48.55 52.4101 48.29C52.8101 47.68 53.1501 47.02 53.4101 46.34L56.6301 38.06C57.3601 36.18 57.7301 34.21 57.7301 32.2C57.7501 28.54 53.7201 26.84 51.3201 26.15Z" fill="#F37321"/>
<path d="M31.0701 27.2001L28.7901 31.7601C28.5001 32.3401 28.7401 33.0601 29.3201 33.3501C29.9101 33.6401 30.6201 33.4001 30.9101 32.8201L33.1901 28.2601C34.9901 24.6801 38.0001 21.8501 41.6701 20.2601C41.6801 20.3001 41.7001 20.3401 41.7101 20.3801C39.1601 22.5601 36.8501 25.5401 35.1901 28.7801L32.8601 33.3101C32.7101 33.5901 32.6901 33.9101 32.7801 34.2201C32.8801 34.5201 33.0901 34.7701 33.3701 34.9101C33.6501 35.0501 33.9701 35.0801 34.2801 34.9901C34.5801 34.8901 34.8301 34.6801 34.9701 34.4001L37.3001 29.8701C38.8001 26.9301 40.8901 24.2301 43.1801 22.2501C43.2401 22.2901 43.3001 22.3301 43.3601 22.3701C43.4201 22.4001 43.4701 22.4401 43.5301 22.4701L42.4801 24.4301C41.4601 26.3401 40.4001 28.3201 39.3201 30.3701L37.6301 33.5501C37.3201 34.1301 37.5501 34.8501 38.1201 35.1601C38.7001 35.4701 39.4201 35.2401 39.7301 34.6701L41.4201 31.4901C42.5001 29.4401 43.5501 27.4701 44.5701 25.5701L45.5201 23.7901C45.5301 26.6401 44.8201 29.4501 43.4501 31.9601L42.5801 33.5501C42.4301 33.8301 42.3901 34.1501 42.4801 34.4501C42.5701 34.7501 42.7701 35.0101 43.0501 35.1601C43.2301 35.2601 43.4201 35.3101 43.6201 35.3101C43.7301 35.3101 43.8501 35.2901 43.9601 35.2601C44.2601 35.1701 44.5201 34.9701 44.6701 34.6901L45.5401 33.1001C47.3901 29.7201 48.1801 25.9201 47.8201 22.0801C48.1801 21.8001 48.4801 21.4501 48.7201 21.0601L56.2001 8.85011C56.7501 7.96011 56.9101 6.90011 56.6701 5.89011C56.4301 4.88011 55.7901 4.00011 54.9001 3.46011C54.0101 2.91011 52.9501 2.75011 51.9401 2.99011C50.9201 3.24011 50.0601 3.86011 49.5201 4.76011L42.0601 16.9701C41.9201 17.2001 41.8001 17.4501 41.7101 17.7001C37.0701 19.4201 33.3001 22.7901 31.0701 27.2001ZM53.1001 5.27011C53.3001 5.30011 53.4901 5.37011 53.6701 5.48011C53.8401 5.59011 53.9901 5.72011 54.1101 5.89011C54.2301 6.06011 54.3201 6.24011 54.3601 6.44011C54.4101 6.64011 54.4201 6.84011 54.3801 7.04011C54.3501 7.24011 54.2801 7.43011 54.1701 7.61011L46.7101 19.8201C46.6001 19.9901 46.4701 20.1401 46.3001 20.2601C46.1301 20.3801 45.9501 20.4701 45.7501 20.5101C45.5501 20.5601 45.3501 20.5701 45.1501 20.5301C44.9501 20.5001 44.7601 20.4301 44.5801 20.3201C44.4101 20.2101 44.2601 20.0801 44.1401 19.9101C44.0201 19.7501 43.9301 19.5601 43.8901 19.3601C43.8401 19.1601 43.8301 18.9601 43.8701 18.7601C43.9001 18.5601 43.9701 18.3701 44.0801 18.1901L51.5401 6.00011C51.6501 5.83011 51.7801 5.68011 51.9501 5.56011C52.1101 5.44011 52.3001 5.35011 52.5001 5.31011C52.6201 5.28011 52.7401 5.27011 52.8601 5.27011C52.9401 5.25011 53.0201 5.26011 53.1001 5.27011Z" fill="#F37321"/>
<path d="M1.76008 45.48C1.91008 45.55 2.07008 45.58 2.24008 45.58C2.41008 45.58 2.57008 45.54 2.73008 45.47C3.27008 45.22 3.57008 44.58 3.44008 43.91C3.40008 43.69 3.38008 43.47 3.38008 43.25V42.11C3.38008 32.42 4.89008 22.84 7.88008 13.62H27.8901C27.1701 15.92 26.5201 18.28 25.9701 20.63C25.9001 20.94 25.9501 21.25 26.1201 21.52C26.2901 21.79 26.5501 21.98 26.8701 22.05C27.5101 22.19 28.1401 21.79 28.2901 21.15C28.8801 18.63 29.5801 16.1 30.3801 13.62H32.2001C33.2701 13.62 34.2701 13.2 35.0301 12.45C35.7901 11.7 36.2001 10.69 36.2001 9.62V6.81C36.2001 6.65 36.1701 6.5 36.1101 6.35C36.0501 6.2 35.9601 6.08 35.8501 5.97C35.7401 5.86 35.6101 5.77 35.4701 5.71C35.3301 5.65 35.1701 5.62 35.0101 5.62H30.5801C30.6301 4.78 30.9901 4 31.5901 3.4C32.2501 2.74 33.1301 2.37 34.0601 2.37H34.2301C34.9901 2.37 35.7501 2.63 36.3501 3.09C36.9601 3.55 37.4001 4.21 37.6001 4.95L38.6201 8.43C38.8601 9.3 39.0901 10.21 39.3201 11.15C39.4701 11.78 40.1101 12.18 40.7501 12.04C41.0601 11.97 41.3301 11.78 41.4901 11.51C41.6601 11.24 41.7101 10.92 41.6301 10.62C41.4101 9.68 41.1601 8.74 40.9101 7.81L39.9001 4.33C39.5601 3.09 38.8101 1.99 37.8001 1.21C36.7801 0.43 35.5101 0 34.2301 0H8.75008C7.18008 0 5.71008 0.61 4.60008 1.72C3.49008 2.83 2.88008 4.31 2.88008 5.88V9.63C2.88008 10.48 3.16008 11.32 3.66008 12C4.12008 12.62 4.74008 13.09 5.46008 13.37C2.50008 22.68 1.00008 32.35 1.00008 42.12V43.26C1.00008 43.78 1.07008 44.31 1.21008 44.82C1.29008 45.12 1.48008 45.35 1.76008 45.48ZM33.8101 9.62C33.8101 10.05 33.6401 10.47 33.3301 10.77C32.7201 11.39 31.6401 11.38 31.0301 10.77C30.7201 10.46 30.5501 10.06 30.5501 9.62V8H33.8001V9.62H33.8101ZM28.5301 11.25H6.88008C6.45008 11.25 6.04008 11.08 5.73008 10.77C5.42008 10.46 5.25008 10.05 5.25008 9.62V5.88C5.25008 4.95 5.62008 4.07 6.28008 3.41C6.94008 2.75 7.82008 2.38 8.75008 2.38H29.3501C28.6001 3.39 28.1901 4.61 28.1901 5.88V9.63C28.1901 10.19 28.3101 10.74 28.5301 11.25Z" fill="#F37321"/>
<path d="M48.0901 49.1699C47.7001 48.8199 47.2501 48.5499 46.7601 48.3799C46.2601 48.2099 45.7501 48.1499 45.2201 48.1999L44.4901 48.2699C43.8901 47.3299 43.0601 46.5499 42.0901 46.0099C41.0701 45.4399 39.9201 45.1399 38.7501 45.1299H11.5601C10.3901 45.1299 9.24007 45.4299 8.22007 45.9999C7.25007 46.5399 6.42007 47.3299 5.82007 48.2599L5.10007 48.1999C4.59007 48.1499 4.09007 48.2099 3.60007 48.3699C3.11007 48.5299 2.67007 48.7799 2.29007 49.1099C1.91007 49.4399 1.60007 49.8499 1.37007 50.3099C1.15007 50.7699 1.03007 51.2599 1.00007 51.7699C0.98007 52.2799 1.06007 52.7799 1.24007 53.2599C1.42007 53.7399 1.69007 54.1699 2.04007 54.5399C2.39007 54.9099 2.81007 55.1999 3.28007 55.3999C3.85007 55.6499 4.48007 55.7499 5.09007 55.6899L5.82007 55.6199C6.42007 56.5599 7.25007 57.3299 8.22007 57.8799C9.24007 58.4499 10.3901 58.7599 11.5501 58.7599H38.7401C38.7501 58.7599 38.7601 58.7599 38.7601 58.7599C39.6501 58.7599 40.5201 58.5899 41.3501 58.2499C42.1801 57.9099 42.9201 57.4099 43.5601 56.7699C43.9101 56.4199 44.2201 56.0399 44.4801 55.6299L45.2101 55.6999C46.0801 55.7799 46.9501 55.5499 47.6701 55.0599C48.3001 54.6299 48.7701 54.0299 49.0501 53.3199C49.3201 52.6099 49.3801 51.8499 49.2001 51.1099C49.0401 50.3399 48.6501 49.6799 48.0901 49.1699ZM45.4201 50.5599C45.6101 50.5399 45.8001 50.5599 45.9801 50.6199C46.1601 50.6799 46.3201 50.7699 46.4601 50.8899C46.6001 51.0099 46.7101 51.1599 46.8001 51.3299C46.8801 51.4999 46.9301 51.6799 46.9401 51.8699C46.9501 52.0599 46.9201 52.2399 46.8601 52.4199C46.7901 52.5999 46.7001 52.7499 46.5701 52.8899C46.4401 53.0199 46.2901 53.1299 46.1201 53.2099C45.9101 53.2999 45.6901 53.3399 45.4501 53.3199H45.4401C45.6101 52.4099 45.6101 51.4699 45.4201 50.5599ZM4.75007 50.5599C4.79007 50.5599 4.84007 50.5599 4.88007 50.5699L10.5201 51.0799C10.7401 51.0999 10.9401 51.1999 11.0801 51.3599C11.2301 51.5199 11.3101 51.7299 11.3101 51.9399C11.3101 52.1499 11.2301 52.3599 11.0801 52.5199C10.9301 52.6799 10.7401 52.7799 10.5201 52.7999L4.88007 53.3099C4.69007 53.3299 4.51007 53.3099 4.33007 53.2499C4.15007 53.1899 3.99007 53.0999 3.85007 52.9799C3.71007 52.8599 3.60007 52.7099 3.52007 52.5399C3.43007 52.3699 3.39007 52.1899 3.38007 51.9999C3.37007 51.8099 3.40007 51.6299 3.47007 51.4499C3.53007 51.2799 3.63007 51.1199 3.76007 50.9799C3.89007 50.8399 4.04007 50.7399 4.22007 50.6599C4.38007 50.5899 4.57007 50.5599 4.75007 50.5599ZM10.7401 55.1699C11.5501 55.0999 12.2901 54.7299 12.8401 54.1299C13.3901 53.5299 13.6901 52.7599 13.6901 51.9399C13.6901 51.1199 13.3901 50.3499 12.8401 49.7599C12.2901 49.1599 11.5501 48.7899 10.7401 48.7199L8.72007 48.5399C9.17007 48.1599 9.70007 47.8799 10.2701 47.7099C10.9701 47.4999 11.7101 47.4599 12.4201 47.5999C13.1301 47.7399 13.8101 48.0599 14.3701 48.5199C14.9301 48.9799 15.3801 49.5799 15.6501 50.2499C15.9301 50.9199 16.0401 51.6599 15.9701 52.3799C15.9001 53.0999 15.6501 53.8099 15.2401 54.4099C14.8401 55.0099 14.2801 55.5099 13.6401 55.8599C13.0001 56.2099 12.2801 56.3799 11.5501 56.3799C10.9401 56.3799 10.3501 56.2499 9.79007 56.0099C9.40007 55.8399 9.04007 55.6199 8.71007 55.3499L10.7401 55.1699ZM17.8401 54.5799C18.1901 53.7399 18.3701 52.8499 18.3701 51.9399C18.3701 51.0299 18.1901 50.1399 17.8401 49.2999C17.5601 48.6399 17.1901 48.0399 16.7301 47.4999H38.7501C39.6301 47.4999 40.4801 47.7599 41.2201 48.2499C41.9501 48.7399 42.5201 49.4299 42.8501 50.2399C43.1901 51.0499 43.2701 51.9399 43.1001 52.7999C42.9301 53.6599 42.5101 54.4499 41.8901 55.0699C41.4701 55.4899 40.9901 55.8099 40.4501 56.0299C39.9101 56.2499 39.3501 56.3599 38.7701 56.3599H16.7301C17.1901 55.8399 17.5601 55.2399 17.8401 54.5799Z" fill="#F37321"/>
</symbol>

<symbol id="card3" width="60" height="56" viewBox="0 0 60 56" xmlns="http://www.w3.org/2000/svg">
<g clip-path="url(#clip0_23_119)">
<path d="M32.4515 5.65518C32.394 5.47722 32.2877 5.31895 32.1447 5.19837C32.0017 5.0778 31.8278 4.99973 31.6426 4.97306L28.3613 4.49993L26.8953 1.55444C26.8124 1.3879 26.6847 1.24778 26.5265 1.14983C26.3684 1.05189 26.186 1 26 1C25.814 1 25.6317 1.05189 25.4735 1.14983C25.3154 1.24778 25.1877 1.3879 25.1048 1.55444L23.6388 4.49993L20.3574 4.97281C20.1723 4.99949 19.9983 5.07756 19.8553 5.19815C19.7124 5.31874 19.6061 5.47701 19.5485 5.65499C19.491 5.83297 19.4845 6.02351 19.5299 6.20498C19.5752 6.38644 19.6705 6.55156 19.805 6.68156L22.175 8.97231L21.616 12.2046C21.5843 12.3882 21.6045 12.5771 21.6744 12.75C21.7443 12.9228 21.8611 13.0726 22.0117 13.1825C22.1622 13.2925 22.3405 13.3581 22.5264 13.3721C22.7122 13.3861 22.8983 13.3478 23.0636 13.2617L26.0011 11.7304L28.9386 13.2617C29.1039 13.3478 29.29 13.3861 29.4759 13.3721C29.6618 13.3581 29.8401 13.2925 29.9906 13.1825C30.1412 13.0726 30.258 12.9228 30.3279 12.75C30.3978 12.5771 30.418 12.3882 30.3863 12.2046L29.825 8.97231L32.195 6.68181C32.3295 6.5518 32.4249 6.38668 32.4702 6.2052C32.5155 6.02373 32.5091 5.83317 32.4515 5.65518ZM28.055 7.90218C27.9378 8.01552 27.85 8.1558 27.7994 8.31082C27.7488 8.46583 27.7369 8.63087 27.7646 8.79156L28.0694 10.5541L26.4624 9.71656C26.3196 9.64207 26.1609 9.60318 25.9999 9.60318C25.8388 9.60318 25.6802 9.64207 25.5374 9.71656L23.9304 10.5541L24.2351 8.79156C24.2629 8.63087 24.251 8.46583 24.2004 8.31082C24.1498 8.1558 24.062 8.01552 23.9448 7.90218L22.6614 6.66156L24.4428 6.40493C24.6029 6.38186 24.755 6.32028 24.8861 6.22549C25.0172 6.13069 25.1233 6.00551 25.1954 5.86068L26 4.24443L26.8044 5.86068C26.8765 6.00551 26.9826 6.13069 27.1137 6.22549C27.2448 6.32028 27.3969 6.38186 27.557 6.40493L29.3384 6.66156L28.055 7.90218Z" fill="#F37321"/>
<path d="M45.9515 9.65518C45.894 9.47721 45.7877 9.31895 45.6447 9.19837C45.5017 9.0778 45.3278 8.99973 45.1426 8.97306L41.8613 8.49993L40.3953 5.55443C40.3124 5.38789 40.1847 5.24778 40.0265 5.14983C39.8684 5.05189 39.686 5 39.5 5C39.314 5 39.1316 5.05189 38.9735 5.14983C38.8153 5.24778 38.6876 5.38789 38.6048 5.55443L37.1388 8.49993L33.8574 8.97281C33.6722 8.99949 33.4983 9.07756 33.3553 9.19815C33.2123 9.31874 33.106 9.47701 33.0485 9.65499C32.991 9.83296 32.9845 10.0235 33.0299 10.205C33.0752 10.3864 33.1705 10.5516 33.305 10.6816L35.675 12.9723L35.116 16.2046C35.0842 16.3882 35.1045 16.5772 35.1744 16.75C35.2443 16.9228 35.3611 17.0726 35.5116 17.1825C35.6622 17.2925 35.8405 17.3581 36.0263 17.3721C36.2122 17.3861 36.3983 17.3478 36.5636 17.2617L39.5011 15.7304L42.4386 17.2617C42.6039 17.3478 42.79 17.3861 42.9759 17.3721C43.1618 17.3581 43.3401 17.2925 43.4906 17.1825C43.6412 17.0726 43.758 16.9228 43.8279 16.75C43.8978 16.5772 43.918 16.3882 43.8863 16.2046L43.325 12.9723L45.6945 10.6818C45.8291 10.5519 45.9245 10.3868 45.97 10.2053C46.0154 10.0238 46.009 9.83321 45.9515 9.65518ZM41.555 11.9022C41.4378 12.0155 41.35 12.1558 41.2994 12.3108C41.2488 12.4658 41.2369 12.6309 41.2646 12.7916L41.5694 14.5541L39.9624 13.7166C39.8196 13.6421 39.6609 13.6032 39.4999 13.6032C39.3388 13.6032 39.1802 13.6421 39.0374 13.7166L37.4304 14.5541L37.7351 12.7916C37.7629 12.6309 37.751 12.4658 37.7004 12.3108C37.6498 12.1558 37.562 12.0155 37.4448 11.9022L36.1614 10.6616L37.9428 10.4049C38.1029 10.3819 38.255 10.3203 38.3861 10.2255C38.5172 10.1307 38.6233 10.0055 38.6954 9.86068L39.5 8.24443L40.3044 9.86068C40.3765 10.0055 40.4826 10.1307 40.6137 10.2255C40.7448 10.3203 40.8969 10.3819 41.057 10.4049L42.8384 10.6616L41.555 11.9022Z" fill="#F37321"/>
<path d="M18.9515 10.2802C18.894 10.1022 18.7877 9.94395 18.6447 9.82337C18.5017 9.7028 18.3278 9.62473 18.1426 9.59806L14.8613 9.12493L13.3953 6.17943C13.3124 6.01289 13.1847 5.87278 13.0265 5.77483C12.8684 5.67689 12.686 5.625 12.5 5.625C12.314 5.625 12.1317 5.67689 11.9735 5.77483C11.8154 5.87278 11.6877 6.01289 11.6048 6.17943L10.1388 9.12493L6.85741 9.59781C6.67228 9.62449 6.49834 9.70256 6.35536 9.82315C6.21237 9.94374 6.10608 10.102 6.04855 10.28C5.99101 10.458 5.98455 10.6485 6.02989 10.83C6.07523 11.0114 6.17055 11.1766 6.30503 11.3066L8.67503 13.5973L8.11603 16.8296C8.08427 17.0132 8.10449 17.2022 8.1744 17.375C8.24431 17.5478 8.36113 17.6976 8.51167 17.8075C8.66221 17.9175 8.84049 17.9831 9.02638 17.9971C9.21226 18.0111 9.39836 17.9728 9.56366 17.8867L12.5011 16.3554L15.4386 17.8867C15.6039 17.9728 15.79 18.0111 15.9759 17.9971C16.1618 17.9831 16.3401 17.9175 16.4906 17.8075C16.6412 17.6976 16.758 17.5478 16.8279 17.375C16.8978 17.2022 16.918 17.0132 16.8863 16.8296L16.325 13.5973L18.6945 11.3068C18.8291 11.1769 18.9245 11.0118 18.97 10.8303C19.0154 10.6488 19.009 10.4582 18.9515 10.2802ZM14.555 12.5272C14.4378 12.6405 14.35 12.7808 14.2994 12.9358C14.2488 13.0908 14.2369 13.2559 14.2646 13.4166L14.5694 15.1791L12.9624 14.3416C12.8196 14.2671 12.6609 14.2282 12.4999 14.2282C12.3389 14.2282 12.1802 14.2671 12.0374 14.3416L10.4304 15.1791L10.7351 13.4166C10.7629 13.2559 10.751 13.0908 10.7004 12.9358C10.6498 12.7808 10.562 12.6405 10.4448 12.5272L9.16141 11.2866L10.9428 11.0299C11.1029 11.0069 11.255 10.9453 11.3861 10.8505C11.5172 10.7557 11.6233 10.6305 11.6954 10.4857L12.5 8.86943L13.3044 10.4857C13.3765 10.6305 13.4826 10.7557 13.6137 10.8505C13.7448 10.9453 13.8969 11.0069 14.057 11.0299L15.8384 11.2866L14.555 12.5272Z" fill="#F37321"/>
<path d="M59 39H53C52.8088 39.0001 52.6217 39.055 52.4608 39.1582C52.2999 39.2614 52.172 39.4086 52.0923 39.5824C52.0116 39.4546 51.9408 39.3209 51.8804 39.1824L49.9191 34.6063C49.9164 34.5995 49.9134 34.5929 49.9104 34.5863L44.9104 23.5863C44.8547 23.4639 44.775 23.354 44.6759 23.2631C44.5768 23.1723 44.4604 23.1023 44.3337 23.0575C44.207 23.0126 44.0725 22.9938 43.9383 23.0021C43.8041 23.0104 43.673 23.0456 43.5528 23.1058C42.3229 23.7206 41.5606 24.4996 41.1222 25.3641C37.6468 22.5361 33.4462 20.7423 29 20.1875V18H30C30.2652 18 30.5196 17.8947 30.7071 17.7071C30.8946 17.5196 31 17.2652 31 17C31 16.7348 30.8946 16.4804 30.7071 16.2929C30.5196 16.1054 30.2652 16 30 16H22C21.7348 16 21.4804 16.1054 21.2929 16.2929C21.1054 16.4804 21 16.7348 21 17C21 17.2652 21.1054 17.5196 21.2929 17.7071C21.4804 17.8947 21.7348 18 22 18H23V20.1875C11.5014 21.6274 2.50725 31.2343 2.02238 43H1C0.734784 43 0.48043 43.1054 0.292893 43.2929C0.105357 43.4804 0 43.7348 0 44V46C0.000893291 46.7954 0.317251 47.5579 0.879666 48.1203C1.44208 48.6828 2.20462 48.9991 3 49H30.7664C31.1521 49.4311 31.6541 49.7416 32.2121 49.8943C32.0313 50.3492 31.9646 50.8415 32.0178 51.3282C32.0711 51.8149 32.2428 52.2811 32.5178 52.6861C32.7928 53.0911 33.1628 53.4226 33.5955 53.6517C34.0282 53.8807 34.5104 54.0003 35 54H52C52 54.2652 52.1054 54.5196 52.2929 54.7071C52.4804 54.8947 52.7348 55 53 55H59C59.2652 55 59.5196 54.8947 59.7071 54.7071C59.8946 54.5196 60 54.2652 60 54V40C60 39.7348 59.8946 39.4804 59.7071 39.2929C59.5196 39.1054 59.2652 39 59 39ZM25 18H27V20.0218C26.6676 20.0081 26.3343 20 26 20C25.6658 20 25.3319 20.0088 25 20.0224V18ZM26 22C31.3908 21.9936 36.5952 23.973 40.6191 27.5604C40.5981 29.2193 41.2139 30.9473 41.7066 32.328C41.83 32.6739 41.9465 33.0006 42.0518 33.3163C42.5281 34.7455 42.4781 35.5808 42.378 36H33C32.4207 35.9996 31.8537 36.1671 31.3676 36.4821C30.8814 36.7971 30.497 37.2463 30.2607 37.7752C30.0244 38.3041 29.9464 38.8902 30.0362 39.4625C30.1259 40.0348 30.3795 40.5688 30.7664 41C30.2725 41.549 29.9995 42.2615 30 43H4.02375C4.54838 31.3315 14.2044 22 26 22ZM32 39C32.0003 38.7349 32.1058 38.4807 32.2932 38.2932C32.4807 38.1058 32.7349 38.0003 33 38H41C41.2652 38 41.5196 38.1054 41.7071 38.2929C41.8946 38.4804 42 38.7348 42 39C42 39.2652 41.8946 39.5196 41.7071 39.7071C41.5196 39.8947 41.2652 40 41 40H33C32.7349 39.9997 32.4807 39.8943 32.2932 39.7068C32.1058 39.5193 32.0003 39.2651 32 39ZM32 43C32.0003 42.7349 32.1058 42.4807 32.2932 42.2932C32.4807 42.1058 32.7349 42.0003 33 42H41C41.2652 42 41.5196 42.1054 41.7071 42.2929C41.8946 42.4804 42 42.7348 42 43C42 43.2652 41.8946 43.5196 41.7071 43.7071C41.5196 43.8947 41.2652 44 41 44H33C32.7349 43.9997 32.4807 43.8943 32.2932 43.7068C32.1058 43.5193 32.0003 43.2651 32 43ZM3 47C2.73487 46.9997 2.48069 46.8943 2.29322 46.7068C2.10575 46.5193 2.0003 46.2651 2 46V45H30.7664C30.2725 45.549 29.9995 46.2615 30 47H3ZM33 46H41C41.2652 46 41.5196 46.1054 41.7071 46.2929C41.8946 46.4804 42 46.7348 42 47C42 47.2652 41.8946 47.5196 41.7071 47.7071C41.5196 47.8947 41.2652 48 41 48H33C32.7348 48 32.4804 47.8947 32.2929 47.7071C32.1054 47.5196 32 47.2652 32 47C32 46.7348 32.1054 46.4804 32.2929 46.2929C32.4804 46.1054 32.7348 46 33 46ZM35 52C34.7348 52 34.4804 51.8947 34.2929 51.7071C34.1054 51.5196 34 51.2652 34 51C34 50.7348 34.1054 50.4804 34.2929 50.2929C34.4804 50.1054 34.7348 50 35 50H41C41.2652 50 41.5196 50.1054 41.7071 50.2929C41.8946 50.4804 42 50.7348 42 51C42 51.2652 41.8946 51.5196 41.7071 51.7071C41.5196 51.8947 41.2652 52 41 52H35ZM43.828 52C44.0078 51.4927 44.0475 50.9463 43.9429 50.4184C43.8383 49.8904 43.5933 49.4004 43.2336 49C43.727 48.4507 44 47.7384 44 47C44 46.2616 43.727 45.5493 43.2336 45C43.3723 44.8451 43.4947 44.6762 43.5986 44.4961C44.8319 45.1343 46.8926 46 49 46C49.2652 46 49.5196 45.8947 49.7071 45.7071C49.8946 45.5196 50 45.2652 50 45C50 44.7348 49.8946 44.4804 49.7071 44.2929C49.5196 44.1054 49.2652 44 49 44C46.9323 44 44.7943 42.8966 43.94 42.4021C43.8335 41.8802 43.5897 41.3962 43.2336 41C43.6292 40.5595 43.8853 40.0115 43.9696 39.4255C44.0538 38.8394 43.9624 38.2415 43.7069 37.7074C43.9469 37.4674 45.0863 36.0974 43.9484 32.684C43.8366 32.3488 43.7168 32.0124 43.5898 31.6565C42.5881 28.8475 42.0295 26.8036 43.5684 25.4679L48.0849 35.4041L50.042 39.9708C50.445 40.9128 51.1287 41.7077 52 42.247V52H43.828ZM58 53H54V41H58V53Z" fill="#F37321"/>
<path d="M32.4515 5.65518C32.394 5.47722 32.2877 5.31895 32.1447 5.19837C32.0017 5.0778 31.8278 4.99973 31.6426 4.97306L28.3613 4.49993L26.8953 1.55444C26.8124 1.3879 26.6847 1.24778 26.5265 1.14983C26.3684 1.05189 26.186 1 26 1C25.814 1 25.6317 1.05189 25.4735 1.14983C25.3154 1.24778 25.1877 1.3879 25.1048 1.55444L23.6388 4.49993L20.3574 4.97281C20.1723 4.99949 19.9983 5.07756 19.8553 5.19815C19.7124 5.31874 19.6061 5.47701 19.5485 5.65499C19.491 5.83297 19.4845 6.02351 19.5299 6.20498C19.5752 6.38644 19.6705 6.55156 19.805 6.68156L22.175 8.97231L21.616 12.2046C21.5843 12.3882 21.6045 12.5771 21.6744 12.75C21.7443 12.9228 21.8611 13.0726 22.0117 13.1825C22.1622 13.2925 22.3405 13.3581 22.5264 13.3721C22.7122 13.3861 22.8983 13.3478 23.0636 13.2617L26.0011 11.7304L28.9386 13.2617C29.1039 13.3478 29.29 13.3861 29.4759 13.3721C29.6618 13.3581 29.8401 13.2925 29.9906 13.1825C30.1412 13.0726 30.258 12.9228 30.3279 12.75C30.3978 12.5771 30.418 12.3882 30.3863 12.2046L29.825 8.97231L32.195 6.68181C32.3295 6.5518 32.4249 6.38668 32.4702 6.2052C32.5155 6.02373 32.5091 5.83317 32.4515 5.65518ZM28.055 7.90218C27.9378 8.01552 27.85 8.1558 27.7994 8.31082C27.7488 8.46583 27.7369 8.63087 27.7646 8.79156L28.0694 10.5541L26.4624 9.71656C26.3196 9.64207 26.1609 9.60318 25.9999 9.60318C25.8388 9.60318 25.6802 9.64207 25.5374 9.71656L23.9304 10.5541L24.2351 8.79156C24.2629 8.63087 24.251 8.46583 24.2004 8.31082C24.1498 8.1558 24.062 8.01552 23.9448 7.90218L22.6614 6.66156L24.4428 6.40493C24.6029 6.38186 24.755 6.32028 24.8861 6.22549C25.0172 6.13069 25.1233 6.00551 25.1954 5.86068L26 4.24443L26.8044 5.86068C26.8765 6.00551 26.9826 6.13069 27.1137 6.22549C27.2448 6.32028 27.3969 6.38186 27.557 6.40493L29.3384 6.66156L28.055 7.90218Z" stroke="#F37321" stroke-width="0.2"/>
<path d="M45.9515 9.65518C45.894 9.47721 45.7877 9.31895 45.6447 9.19837C45.5017 9.0778 45.3278 8.99973 45.1426 8.97306L41.8613 8.49993L40.3953 5.55443C40.3124 5.38789 40.1847 5.24778 40.0265 5.14983C39.8684 5.05189 39.686 5 39.5 5C39.314 5 39.1316 5.05189 38.9735 5.14983C38.8153 5.24778 38.6876 5.38789 38.6048 5.55443L37.1388 8.49993L33.8574 8.97281C33.6722 8.99949 33.4983 9.07756 33.3553 9.19815C33.2123 9.31874 33.106 9.47701 33.0485 9.65499C32.991 9.83296 32.9845 10.0235 33.0299 10.205C33.0752 10.3864 33.1705 10.5516 33.305 10.6816L35.675 12.9723L35.116 16.2046C35.0842 16.3882 35.1045 16.5772 35.1744 16.75C35.2443 16.9228 35.3611 17.0726 35.5116 17.1825C35.6622 17.2925 35.8405 17.3581 36.0263 17.3721C36.2122 17.3861 36.3983 17.3478 36.5636 17.2617L39.5011 15.7304L42.4386 17.2617C42.6039 17.3478 42.79 17.3861 42.9759 17.3721C43.1618 17.3581 43.3401 17.2925 43.4906 17.1825C43.6412 17.0726 43.758 16.9228 43.8279 16.75C43.8978 16.5772 43.918 16.3882 43.8863 16.2046L43.325 12.9723L45.6945 10.6818C45.8291 10.5519 45.9245 10.3868 45.97 10.2053C46.0154 10.0238 46.009 9.83321 45.9515 9.65518ZM41.555 11.9022C41.4378 12.0155 41.35 12.1558 41.2994 12.3108C41.2488 12.4658 41.2369 12.6309 41.2646 12.7916L41.5694 14.5541L39.9624 13.7166C39.8196 13.6421 39.6609 13.6032 39.4999 13.6032C39.3388 13.6032 39.1802 13.6421 39.0374 13.7166L37.4304 14.5541L37.7351 12.7916C37.7629 12.6309 37.751 12.4658 37.7004 12.3108C37.6498 12.1558 37.562 12.0155 37.4448 11.9022L36.1614 10.6616L37.9428 10.4049C38.1029 10.3819 38.255 10.3203 38.3861 10.2255C38.5172 10.1307 38.6233 10.0055 38.6954 9.86068L39.5 8.24443L40.3044 9.86068C40.3765 10.0055 40.4826 10.1307 40.6137 10.2255C40.7448 10.3203 40.8969 10.3819 41.057 10.4049L42.8384 10.6616L41.555 11.9022Z" stroke="#F37321" stroke-width="0.2"/>
<path d="M18.9515 10.2802C18.894 10.1022 18.7877 9.94395 18.6447 9.82337C18.5017 9.7028 18.3278 9.62473 18.1426 9.59806L14.8613 9.12493L13.3953 6.17943C13.3124 6.01289 13.1847 5.87278 13.0265 5.77483C12.8684 5.67689 12.686 5.625 12.5 5.625C12.314 5.625 12.1317 5.67689 11.9735 5.77483C11.8154 5.87278 11.6877 6.01289 11.6048 6.17943L10.1388 9.12493L6.85741 9.59781C6.67228 9.62449 6.49834 9.70256 6.35536 9.82315C6.21237 9.94374 6.10608 10.102 6.04855 10.28C5.99101 10.458 5.98455 10.6485 6.02989 10.83C6.07523 11.0114 6.17055 11.1766 6.30503 11.3066L8.67503 13.5973L8.11603 16.8296C8.08427 17.0132 8.10449 17.2022 8.1744 17.375C8.24431 17.5478 8.36113 17.6976 8.51167 17.8075C8.66221 17.9175 8.84049 17.9831 9.02638 17.9971C9.21226 18.0111 9.39836 17.9728 9.56366 17.8867L12.5011 16.3554L15.4386 17.8867C15.6039 17.9728 15.79 18.0111 15.9759 17.9971C16.1618 17.9831 16.3401 17.9175 16.4906 17.8075C16.6412 17.6976 16.758 17.5478 16.8279 17.375C16.8978 17.2022 16.918 17.0132 16.8863 16.8296L16.325 13.5973L18.6945 11.3068C18.8291 11.1769 18.9245 11.0118 18.97 10.8303C19.0154 10.6488 19.009 10.4582 18.9515 10.2802ZM14.555 12.5272C14.4378 12.6405 14.35 12.7808 14.2994 12.9358C14.2488 13.0908 14.2369 13.2559 14.2646 13.4166L14.5694 15.1791L12.9624 14.3416C12.8196 14.2671 12.6609 14.2282 12.4999 14.2282C12.3389 14.2282 12.1802 14.2671 12.0374 14.3416L10.4304 15.1791L10.7351 13.4166C10.7629 13.2559 10.751 13.0908 10.7004 12.9358C10.6498 12.7808 10.562 12.6405 10.4448 12.5272L9.16141 11.2866L10.9428 11.0299C11.1029 11.0069 11.255 10.9453 11.3861 10.8505C11.5172 10.7557 11.6233 10.6305 11.6954 10.4857L12.5 8.86943L13.3044 10.4857C13.3765 10.6305 13.4826 10.7557 13.6137 10.8505C13.7448 10.9453 13.8969 11.0069 14.057 11.0299L15.8384 11.2866L14.555 12.5272Z" stroke="#F37321" stroke-width="0.2"/>
<path d="M59 39H53C52.8088 39.0001 52.6217 39.055 52.4608 39.1582C52.2999 39.2614 52.172 39.4086 52.0923 39.5824C52.0116 39.4546 51.9408 39.3209 51.8804 39.1824L49.9191 34.6063C49.9164 34.5995 49.9134 34.5929 49.9104 34.5863L44.9104 23.5863C44.8547 23.4639 44.775 23.354 44.6759 23.2631C44.5768 23.1723 44.4604 23.1023 44.3337 23.0575C44.207 23.0126 44.0725 22.9938 43.9383 23.0021C43.8041 23.0104 43.673 23.0456 43.5528 23.1058C42.3229 23.7206 41.5606 24.4996 41.1222 25.3641C37.6468 22.5361 33.4462 20.7423 29 20.1875V18H30C30.2652 18 30.5196 17.8947 30.7071 17.7071C30.8946 17.5196 31 17.2652 31 17C31 16.7348 30.8946 16.4804 30.7071 16.2929C30.5196 16.1054 30.2652 16 30 16H22C21.7348 16 21.4804 16.1054 21.2929 16.2929C21.1054 16.4804 21 16.7348 21 17C21 17.2652 21.1054 17.5196 21.2929 17.7071C21.4804 17.8947 21.7348 18 22 18H23V20.1875C11.5014 21.6274 2.50725 31.2343 2.02238 43H1C0.734784 43 0.48043 43.1054 0.292893 43.2929C0.105357 43.4804 0 43.7348 0 44V46C0.000893291 46.7954 0.317251 47.5579 0.879666 48.1203C1.44208 48.6828 2.20462 48.9991 3 49H30.7664C31.1521 49.4311 31.6541 49.7416 32.2121 49.8943C32.0313 50.3492 31.9646 50.8415 32.0178 51.3282C32.0711 51.8149 32.2428 52.2811 32.5178 52.6861C32.7928 53.0911 33.1628 53.4226 33.5955 53.6517C34.0282 53.8807 34.5104 54.0003 35 54H52C52 54.2652 52.1054 54.5196 52.2929 54.7071C52.4804 54.8947 52.7348 55 53 55H59C59.2652 55 59.5196 54.8947 59.7071 54.7071C59.8946 54.5196 60 54.2652 60 54V40C60 39.7348 59.8946 39.4804 59.7071 39.2929C59.5196 39.1054 59.2652 39 59 39ZM25 18H27V20.0218C26.6676 20.0081 26.3343 20 26 20C25.6658 20 25.3319 20.0088 25 20.0224V18ZM26 22C31.3908 21.9936 36.5952 23.973 40.6191 27.5604C40.5981 29.2193 41.2139 30.9473 41.7066 32.328C41.83 32.6739 41.9465 33.0006 42.0518 33.3163C42.5281 34.7455 42.4781 35.5808 42.378 36H33C32.4207 35.9996 31.8537 36.1671 31.3676 36.4821C30.8814 36.7971 30.497 37.2463 30.2607 37.7752C30.0244 38.3041 29.9464 38.8902 30.0362 39.4625C30.1259 40.0348 30.3795 40.5688 30.7664 41C30.2725 41.549 29.9995 42.2615 30 43H4.02375C4.54838 31.3315 14.2044 22 26 22ZM32 39C32.0003 38.7349 32.1058 38.4807 32.2932 38.2932C32.4807 38.1058 32.7349 38.0003 33 38H41C41.2652 38 41.5196 38.1054 41.7071 38.2929C41.8946 38.4804 42 38.7348 42 39C42 39.2652 41.8946 39.5196 41.7071 39.7071C41.5196 39.8947 41.2652 40 41 40H33C32.7349 39.9997 32.4807 39.8943 32.2932 39.7068C32.1058 39.5193 32.0003 39.2651 32 39ZM32 43C32.0003 42.7349 32.1058 42.4807 32.2932 42.2932C32.4807 42.1058 32.7349 42.0003 33 42H41C41.2652 42 41.5196 42.1054 41.7071 42.2929C41.8946 42.4804 42 42.7348 42 43C42 43.2652 41.8946 43.5196 41.7071 43.7071C41.5196 43.8947 41.2652 44 41 44H33C32.7349 43.9997 32.4807 43.8943 32.2932 43.7068C32.1058 43.5193 32.0003 43.2651 32 43ZM3 47C2.73487 46.9997 2.48069 46.8943 2.29322 46.7068C2.10575 46.5193 2.0003 46.2651 2 46V45H30.7664C30.2725 45.549 29.9995 46.2615 30 47H3ZM33 46H41C41.2652 46 41.5196 46.1054 41.7071 46.2929C41.8946 46.4804 42 46.7348 42 47C42 47.2652 41.8946 47.5196 41.7071 47.7071C41.5196 47.8947 41.2652 48 41 48H33C32.7348 48 32.4804 47.8947 32.2929 47.7071C32.1054 47.5196 32 47.2652 32 47C32 46.7348 32.1054 46.4804 32.2929 46.2929C32.4804 46.1054 32.7348 46 33 46ZM35 52C34.7348 52 34.4804 51.8947 34.2929 51.7071C34.1054 51.5196 34 51.2652 34 51C34 50.7348 34.1054 50.4804 34.2929 50.2929C34.4804 50.1054 34.7348 50 35 50H41C41.2652 50 41.5196 50.1054 41.7071 50.2929C41.8946 50.4804 42 50.7348 42 51C42 51.2652 41.8946 51.5196 41.7071 51.7071C41.5196 51.8947 41.2652 52 41 52H35ZM43.828 52C44.0078 51.4927 44.0475 50.9463 43.9429 50.4184C43.8383 49.8904 43.5933 49.4004 43.2336 49C43.727 48.4507 44 47.7384 44 47C44 46.2616 43.727 45.5493 43.2336 45C43.3723 44.8451 43.4947 44.6762 43.5986 44.4961C44.8319 45.1343 46.8926 46 49 46C49.2652 46 49.5196 45.8947 49.7071 45.7071C49.8946 45.5196 50 45.2652 50 45C50 44.7348 49.8946 44.4804 49.7071 44.2929C49.5196 44.1054 49.2652 44 49 44C46.9323 44 44.7943 42.8966 43.94 42.4021C43.8335 41.8802 43.5897 41.3962 43.2336 41C43.6292 40.5595 43.8853 40.0115 43.9696 39.4255C44.0538 38.8394 43.9624 38.2415 43.7069 37.7074C43.9469 37.4674 45.0863 36.0974 43.9484 32.684C43.8366 32.3488 43.7168 32.0124 43.5898 31.6565C42.5881 28.8475 42.0295 26.8036 43.5684 25.4679L48.0849 35.4041L50.042 39.9708C50.445 40.9128 51.1287 41.7077 52 42.247V52H43.828ZM58 53H54V41H58V53Z" stroke="#F37321" stroke-width="0.2"/>
</g>
<defs>
<clipPath id="clip0_23_119">
<rect width="60" height="56" />
</clipPath>
</defs>
</symbol>

<symbol id="card4" width="60" height="60" viewBox="0 0 60 60" xmlns="http://www.w3.org/2000/svg">
<path d="M30.96 24C30.7 24.008 30.45 24.116 30.266 24.304L24.99 29.564L21.74 26.324C20.83 25.376 19.36 26.84 20.31 27.748L24.276 31.704C24.67 32.098 25.31 32.098 25.706 31.704L31.696 25.73C32.356 25.09 31.87 24 30.962 24H30.96ZM1 32H7C7.554 32 8 32.446 8 33C8 33.554 7.554 34 7 34H1C0.446 34 0 33.554 0 33C0 32.446 0.446 32 1 32ZM1 24H7C7.554 24 8 24.446 8 25C8 25.554 7.554 26 7 26H1C0.446 26 0 25.554 0 25C0 24.446 0.446 24 1 24ZM1 16H7C7.554 16 8 16.446 8 17C8 17.554 7.554 18 7 18H1C0.446 18 0 17.554 0 17C0 16.446 0.446 16 1 16ZM49 38C46.25 38 44 40.25 44 43C44 45.75 46.25 48 49 48C51.75 48 54 45.75 54 43C54 40.25 51.75 38 49 38ZM49 40C50.668 40 52 41.332 52 43C52 44.668 50.668 46 49 46C47.332 46 46 44.668 46 43C46 41.332 47.332 40 49 40ZM23 38C20.25 38 18 40.25 18 43C18 45.75 20.25 48 23 48C25.75 48 28 45.75 28 43C28 40.25 25.75 38 23 38ZM23 40C24.668 40 26 41.332 26 43C26 44.668 24.668 46 23 46C21.332 46 20 44.668 20 43C20 41.332 21.332 40 23 40ZM13 12C11.356 12 10 13.356 10 15V37C10 38.644 11.356 40 13 40H17C18.352 40.02 18.352 37.98 17 38H13C12.428 38 12 37.572 12 37V15C12 14.428 12.428 14 13 14H39C39.572 14 40 14.428 40 15V38H29C27.68 38 27.704 40.02 29 40H43C44.32 40 44.308 38 43 38H42V20H50.454L58 31.792V37C58 37.572 57.572 38 57 38H55C53.692 38 53.692 40 55 40H57C58.644 40 60 38.644 60 37V31.5C60 31.31 59.946 31.12 59.844 30.96L51.844 18.46C51.66 18.174 51.344 18 51 18H42V15C42 13.356 40.644 12 39 12H13Z" fill="#F37321"/>
</symbol>
</svg>